<svg width="292" height="57" viewBox="0 0 292 57" fill="none" xmlns="http://www.w3.org/2000/svg">
<g clip-path="url(#clip0_7_168)">
<path d="M57.0918 0H0V56.0431H57.0918V0Z" fill="#00AEEF"/>
<path d="M51.2481 24.1375C51.4794 21.4326 50.2713 18.7786 48.0185 17.0406C46.4596 15.8389 44.6215 15.2595 42.9987 15.3887C43.6845 14.1165 43.9118 12.5155 43.6167 10.8675C43.1423 8.24484 41.4956 6.06449 39.0953 4.88625C39.0953 4.88625 39.0953 4.88625 39.0913 4.88625C36.6113 3.70408 33.8084 3.845 31.3922 5.26595C29.9887 6.09189 28.9161 7.24666 28.3101 8.49145C27.7041 7.23883 26.6315 6.08798 25.232 5.26595C22.8158 3.84109 20.0129 3.70408 17.5329 4.88625C17.5329 4.88625 17.5329 4.88625 17.5289 4.88625C15.1645 6.05275 13.474 8.29181 13.0075 10.8793C12.7124 12.5233 12.9437 14.1243 13.6175 15.3848C12.1981 15.4631 10.6909 16.0268 9.38315 17.0406C7.14238 18.7708 5.93826 21.4052 6.15357 24.0983V24.2471H6.63601L6.15756 24.3058C6.47653 26.8071 8.06341 29.0697 10.4118 30.3536C11.5561 30.9799 12.7682 31.3009 13.8966 31.3283C13.135 32.3069 12.6087 33.5595 12.4333 34.9531C12.0824 37.7676 13.1988 40.5273 15.4277 42.3396C15.4316 42.3396 15.4356 42.3475 15.4436 42.3514C16.867 43.4239 18.6373 43.9876 20.4475 43.9876C21.2568 43.9876 22.0702 43.8741 22.8716 43.6471C24.7456 43.1108 26.2368 42.0147 26.9824 40.6995V51.1863H25.3078V51.6599H24.8253V53.3392H25.3078V53.8129H31.3164V53.3392H31.7988V51.6599H31.3164V51.1863H29.6498V40.1201C30.9536 42.0735 32.9591 43.4044 35.1879 43.7723C35.5986 43.8389 36.0132 43.8741 36.4279 43.8741C38.2181 43.8741 39.9844 43.24 41.5035 42.0343L41.2005 41.6664L41.5075 42.0304C43.6925 40.2689 44.7889 37.5366 44.4381 34.726C44.2786 33.4304 43.8081 32.2599 43.1303 31.3205C43.1662 31.3205 43.2021 31.3322 43.2379 31.3322C44.47 31.3322 45.7937 30.9721 47.0337 30.2675C49.2785 28.9953 50.7657 26.8384 51.0567 24.478L51.0966 24.4389L51.0687 24.4076C51.0727 24.3684 51.0846 24.3254 51.0886 24.2862L50.9371 24.2706L50.7657 24.0944L51.2481 24.1336V24.1375ZM22.3892 35.1527C22.1739 35.2193 22.0343 35.4189 22.0503 35.642C22.0662 35.8612 22.2377 36.0413 22.461 36.0765C23.5973 36.2449 24.3907 36.6167 24.8134 37.1843C25.2041 37.7128 25.2081 38.3078 25.1563 38.6483C24.7655 39.8579 23.7568 40.7465 22.3214 41.1496C20.4156 41.6859 18.1987 41.2123 16.7075 39.9792C15.3559 38.5739 14.7379 36.468 15.1286 34.6125C15.4117 33.2738 16.1892 32.2756 17.2817 31.8176C17.493 31.7472 18.2306 31.5553 18.9443 31.9546C19.5623 32.2991 19.985 33.0037 20.2082 34.0371C20.2561 34.2563 20.4514 34.409 20.6747 34.4129C20.898 34.4129 21.0934 34.2602 21.1452 34.0449C21.6356 31.9272 20.8262 30.2871 18.8048 29.3946C18.7808 29.3867 18.5456 29.3241 18.2107 29.2771C18.3861 29.011 18.4978 28.8035 18.5217 28.7487C19.048 26.674 18.2864 25.1161 16.257 24.1218C16.0576 24.024 15.8144 24.0748 15.6709 24.2432C15.5273 24.4115 15.5194 24.6542 15.6549 24.8303C16.8471 26.3883 16.8232 27.6096 15.6709 28.5177C14.6023 29.0384 13.3344 28.9679 12.1064 28.3142C10.3441 27.3747 9.04823 25.4606 8.81299 23.5073C8.89672 21.5031 10.0051 19.5498 11.6399 18.5359C12.7642 17.8391 13.9883 17.706 15.0568 18.1562C15.4516 18.348 15.9579 18.7081 16.1374 19.3227C16.3367 19.996 16.1134 20.8572 15.4755 21.8828C15.3559 22.0746 15.3918 22.3251 15.5592 22.4778C15.7307 22.6304 15.9859 22.6422 16.1693 22.513C18.0592 21.1625 18.6692 19.4558 17.9116 17.663C19.646 17.3146 20.6827 16.1481 20.9897 14.1674C21.0256 13.9482 20.894 13.7329 20.6827 13.6546C20.4714 13.5724 20.2322 13.6546 20.1046 13.8425C19.4826 14.7898 18.8207 15.3417 18.1389 15.4826C17.6126 15.5922 17.0464 15.4513 16.5361 15.1303C15.6749 14.2887 15.32 13.0674 15.5353 11.6935C15.8383 9.7519 17.2139 7.88862 18.9563 6.98439C20.898 6.42462 23.2464 6.86304 24.8054 8.06477C25.862 8.88289 26.4162 9.94371 26.3684 11.0045C26.2966 11.4547 26.0972 12.0771 25.535 12.4646C24.9489 12.8678 24.0718 12.9578 22.9275 12.7347C22.7042 12.6916 22.4809 12.8052 22.3892 13.0087C22.2975 13.2123 22.3653 13.451 22.5487 13.5841C24.917 15.2674 26.6993 14.4962 27.8396 13.4902C27.8596 13.4628 28.0788 13.177 28.3141 12.7621C28.5573 13.1927 28.7925 13.5019 28.8404 13.5567C30.3914 14.9072 32.2015 14.919 34.0715 13.5841C34.2549 13.455 34.3227 13.2162 34.231 13.0087C34.1393 12.8052 33.92 12.6916 33.6927 12.7347C32.5484 12.9617 31.6673 12.8678 31.0812 12.4646C30.519 12.0771 30.3236 11.4586 30.2598 11.0593C30.208 9.94762 30.7622 8.88289 31.8228 8.06477C33.3777 6.86304 35.7262 6.43245 37.5762 6.95307C39.4063 7.89254 40.7859 9.7519 41.0889 11.6935C41.3042 13.0674 40.9453 14.2927 40.1559 15.0755C39.5738 15.4552 39.0076 15.5962 38.4813 15.4866C37.7955 15.3456 37.1296 14.7937 36.4997 13.8464C36.3761 13.6585 36.1329 13.5841 35.9215 13.6624C35.7102 13.7407 35.5826 13.956 35.6185 14.1791C35.9734 16.3751 37.2134 17.5808 39.3904 17.7648C39.3943 17.7648 39.4223 17.7608 39.4382 17.7608C38.7046 19.5654 39.2707 21.2525 41.0689 22.5247C41.2523 22.6539 41.5035 22.6422 41.671 22.4934C41.8385 22.3447 41.8823 22.102 41.7707 21.9102C41.1925 20.8924 41.0051 20.0351 41.2165 19.3579C41.4118 18.7277 41.9262 18.3637 42.297 18.1797C43.3934 17.7217 44.6215 17.8509 45.7498 18.5516C47.3846 19.5654 48.493 21.5148 48.5767 23.4446C48.3375 25.4723 47.0377 27.3865 45.2754 28.3259C44.0433 28.9796 42.7754 29.054 41.7587 28.5608C41.36 28.3024 40.8656 27.8562 40.7659 27.2064C40.6623 26.537 40.9852 25.7463 41.7228 24.8577C41.8664 24.6855 41.8664 24.435 41.7228 24.2627C41.5833 24.0866 41.3321 24.0357 41.1287 24.1336C39.0953 25.1317 38.3338 26.6858 38.9039 28.8583C38.9199 28.8935 38.9757 28.9914 39.0435 29.1088C38.4414 29.1323 37.9709 29.2497 37.8992 29.2732C36.0332 30.107 35.2637 31.6493 35.6105 33.8688C35.6464 34.0919 35.8338 34.2602 36.0651 34.2681C36.2963 34.2915 36.4997 34.1271 36.5555 33.9118C36.8346 32.8275 37.2732 32.1112 37.8633 31.7746C38.3377 31.5084 38.9239 31.4771 39.6017 31.661C40.734 32.1347 41.5155 33.1368 41.7986 34.4794C42.1893 36.331 41.5713 38.433 40.2675 39.7913C39.0674 40.7347 37.5323 41.1262 35.9415 40.8952C34.2709 40.6525 32.7079 39.7444 31.8587 38.527C30.83 37.0943 30.1362 34.8944 29.6777 33.266C31.4041 32.7493 34.8889 29.9035 37.321 22.8888L36.8625 22.7361L36.4518 22.4856C32.987 27.9971 30.7622 29.2067 30.0684 29.0814C30.0006 29.0697 29.8412 29.0384 29.7814 28.733C29.6298 27.5587 29.6298 24.799 29.6298 22.5834V16.6726H29.1474V16.199H27.4489V16.6726H26.9664V36.4288C26.0015 35.0509 24.3309 34.5734 22.3732 35.1566L22.3892 35.1527Z" fill="white"/>
<g filter="url(#filter0_d_7_168)">
<path d="M287.559 13.0048C285.254 13.0048 283.305 11.0945 283.305 8.83198C283.305 6.56944 285.215 4.65527 287.559 4.65527C289.903 4.65527 291.722 6.53029 291.722 8.83198C291.722 11.1337 289.816 13.0048 287.559 13.0048ZM287.559 5.14849C285.49 5.14849 283.807 6.80039 283.807 8.83198C283.807 10.8636 285.526 12.5116 287.559 12.5116C289.592 12.5116 291.219 10.8244 291.219 8.83198C291.219 6.83953 289.576 5.14849 287.559 5.14849Z" fill="white"/>
</g>
<g filter="url(#filter1_d_7_168)">
<path fill-rule="evenodd" clip-rule="evenodd" d="M285.687 11.1817V6.46484H287.553V6.99721H286.309V8.5669H287.553V9.17364C287.553 9.17364 287.465 9.08752 287.377 9.08752H286.309V11.1778H285.687V11.1817ZM287.553 6.46484V6.99721H287.82C288.167 6.99721 288.442 7.07941 288.625 7.25556C288.796 7.33776 288.796 7.51391 288.796 7.77227C288.796 7.95233 288.796 8.03454 288.709 8.21069C288.621 8.30072 288.537 8.39075 288.35 8.47687C288.167 8.47687 287.991 8.56298 287.64 8.56298H287.553V9.16972C287.611 9.16972 287.669 9.19843 287.728 9.25584C287.82 9.25584 287.911 9.34587 287.995 9.52594C288.087 9.69817 288.27 9.86649 288.442 10.1327L289.064 11.1778H289.869L289.064 9.86649C288.884 9.60814 288.709 9.43591 288.537 9.25584C288.442 9.16972 288.354 9.08752 288.167 8.99749C288.621 8.99749 288.976 8.82525 289.147 8.5669C289.414 8.39075 289.506 8.12457 289.506 7.77618C289.506 7.51783 289.414 7.25948 289.327 7.07941C289.143 6.82106 288.972 6.73103 288.792 6.64882C288.533 6.55879 288.266 6.46876 287.816 6.46876H287.549L287.553 6.46484Z" fill="white"/>
</g>
<g filter="url(#filter2_d_7_168)">
<path fill-rule="evenodd" clip-rule="evenodd" d="M171.464 22.406V29.0644H167.536V33.1902H171.639V43.7475L175.646 40.5377V21.4978L169.37 16.1585H174.749L176.866 12.7529H167.536V19.615L171.464 22.4099V22.406ZM167.536 29.0644H163.621V22.406L167.389 19.5014L167.54 19.611V12.749H147.11V16.1702H166.093L159.367 21.4939V43.6379L163.501 39.8096V33.1863H167.54V29.0605L167.536 29.0644ZM147.106 30.3131V26.156L150.033 24.1087L147.106 21.9088V17.3133L155.686 24.2066L147.106 30.3131ZM147.106 12.749V16.1702H145.679L147.106 17.3133V21.9088L144.18 19.7128V28.2072L147.106 26.156V30.3131L144.183 32.3917V39.9035L140.416 43.681V19.2744L137.138 21.3177L135.811 18.6951L139.965 16.1311H124.698V36.5723L130.248 39.2733L135.998 35.4137V39.3946L130.169 43.7201L120.687 38.7605V16.1781H108.483L114.619 21.5017V40.3302L110.468 43.7514V33.0963H106.453V29.0644H110.349V22.6408L106.453 19.932V12.749H147.102H147.106ZM106.457 12.749V19.932L106.302 19.8224L102.562 22.6408V29.0644H106.457V33.0963H102.474V39.8174L98.1121 43.7201V21.5017L103.778 16.1781H93.4392L84.5838 24.6137V19.889L88.4672 16.1781H84.5838V12.7569H106.461L106.457 12.749ZM84.5798 29.7495H87.8412V43.7123L92.0038 40.2793V29.0723L89.8866 26.1129H84.5838V29.7495H84.5798ZM84.5798 12.749V16.1702H80.7003V23.5959L84.5798 19.8811V24.6059L83.0009 26.1129H84.5798V29.7495H80.9555V39.8996L76.7969 43.7123V16.1742H68.8545L71.7811 12.7529H84.5798V12.749Z" fill="white"/>
</g>
<g filter="url(#filter3_d_7_168)">
<path fill-rule="evenodd" clip-rule="evenodd" d="M183.53 29.0713L181.584 32.2772H187.904L189.65 29.0713H183.53Z" fill="white"/>
</g>
<g filter="url(#filter4_d_7_168)">
<path fill-rule="evenodd" clip-rule="evenodd" d="M270.238 36.1388L266.179 39.2782V43.5763L274.281 37.2897V16.1556H278.93L282.315 12.75H266.179V16.2456H270.238V36.1427V36.1388ZM266.179 39.2782L266.1 39.3448L262.109 36.2406V16.2456H266.179V12.7461H243.142V16.1673H258.026L253.879 18.6765L255.295 20.4967L257.954 18.9035V37.3288L266.02 43.6898L266.175 43.5802V39.2821L266.179 39.2782ZM243.142 32.6276V26.1531L245.945 24.1058L243.142 21.9059V17.4513L251.786 24.1332L244.027 29.8601H251.284V39.975L247.225 43.7094V32.6236H243.138L243.142 32.6276ZM243.142 12.7461V16.1673H241.483L243.142 17.4513V21.9059L240.343 19.7099V28.2042L243.142 26.1531V32.6276H240.052V39.9006L236.16 43.6898L236.172 18.9348L233.537 20.5006L232.133 18.6921L236.483 16.1556H223.234L229.406 21.4949V40.4721L225.323 43.7446V33.0895H221.36V29.0732H225.228V22.6536L221.36 19.9448V12.7461H243.146H243.142ZM221.356 12.7461V19.9448L221.201 19.8391L217.485 22.6536V29.0732H221.356V33.0895H217.329V39.8106L213.047 43.6859V21.491L219.646 16.1673H206.428L210.846 20.3793L208.593 22.3639L204.929 18.7939L201.468 21.0917V39.9358L199.558 41.5995V19.2754L204.072 16.32H199.558V12.7422H221.36L221.356 12.7461ZM199.554 12.7461V16.3239L195.049 16.3317L199.283 19.4555L199.558 19.2793V41.6034L197.19 43.6506V21.0682L194.152 18.9114L190.488 22.5714L188.044 20.4732L192.246 16.1556H184.455L186.963 12.75H199.558L199.554 12.7461Z" fill="white"/>
</g>
</g>
<defs>
<filter id="filter0_d_7_168" x="273.305" y="-5.34473" width="28.417" height="28.3496" filterUnits="userSpaceOnUse" color-interpolation-filters="sRGB">
<feFlood flood-opacity="0" result="BackgroundImageFix"/>
<feColorMatrix in="SourceAlpha" type="matrix" values="0 0 0 0 0 0 0 0 0 0 0 0 0 0 0 0 0 0 127 0" result="hardAlpha"/>
<feOffset/>
<feGaussianBlur stdDeviation="5"/>
<feComposite in2="hardAlpha" operator="out"/>
<feColorMatrix type="matrix" values="0 0 0 0 0 0 0 0 0 0 0 0 0 0 0 0 0 0 0.2 0"/>
<feBlend mode="normal" in2="BackgroundImageFix" result="effect1_dropShadow_7_168"/>
<feBlend mode="normal" in="SourceGraphic" in2="effect1_dropShadow_7_168" result="shape"/>
</filter>
<filter id="filter1_d_7_168" x="275.687" y="-3.53516" width="24.1826" height="24.7168" filterUnits="userSpaceOnUse" color-interpolation-filters="sRGB">
<feFlood flood-opacity="0" result="BackgroundImageFix"/>
<feColorMatrix in="SourceAlpha" type="matrix" values="0 0 0 0 0 0 0 0 0 0 0 0 0 0 0 0 0 0 127 0" result="hardAlpha"/>
<feOffset/>
<feGaussianBlur stdDeviation="5"/>
<feComposite in2="hardAlpha" operator="out"/>
<feColorMatrix type="matrix" values="0 0 0 0 0 0 0 0 0 0 0 0 0 0 0 0 0 0 0.2 0"/>
<feBlend mode="normal" in2="BackgroundImageFix" result="effect1_dropShadow_7_168"/>
<feBlend mode="normal" in="SourceGraphic" in2="effect1_dropShadow_7_168" result="shape"/>
</filter>
<filter id="filter2_d_7_168" x="58.8545" y="2.74902" width="128.012" height="51.002" filterUnits="userSpaceOnUse" color-interpolation-filters="sRGB">
<feFlood flood-opacity="0" result="BackgroundImageFix"/>
<feColorMatrix in="SourceAlpha" type="matrix" values="0 0 0 0 0 0 0 0 0 0 0 0 0 0 0 0 0 0 127 0" result="hardAlpha"/>
<feOffset/>
<feGaussianBlur stdDeviation="5"/>
<feComposite in2="hardAlpha" operator="out"/>
<feColorMatrix type="matrix" values="0 0 0 0 0 0 0 0 0 0 0 0 0 0 0 0 0 0 0.2 0"/>
<feBlend mode="normal" in2="BackgroundImageFix" result="effect1_dropShadow_7_168"/>
<feBlend mode="normal" in="SourceGraphic" in2="effect1_dropShadow_7_168" result="shape"/>
</filter>
<filter id="filter3_d_7_168" x="171.584" y="19.0713" width="28.0659" height="23.2061" filterUnits="userSpaceOnUse" color-interpolation-filters="sRGB">
<feFlood flood-opacity="0" result="BackgroundImageFix"/>
<feColorMatrix in="SourceAlpha" type="matrix" values="0 0 0 0 0 0 0 0 0 0 0 0 0 0 0 0 0 0 127 0" result="hardAlpha"/>
<feOffset/>
<feGaussianBlur stdDeviation="5"/>
<feComposite in2="hardAlpha" operator="out"/>
<feColorMatrix type="matrix" values="0 0 0 0 0 0 0 0 0 0 0 0 0 0 0 0 0 0 0.2 0"/>
<feBlend mode="normal" in2="BackgroundImageFix" result="effect1_dropShadow_7_168"/>
<feBlend mode="normal" in="SourceGraphic" in2="effect1_dropShadow_7_168" result="shape"/>
</filter>
<filter id="filter4_d_7_168" x="174.455" y="2.74219" width="117.86" height="51.002" filterUnits="userSpaceOnUse" color-interpolation-filters="sRGB">
<feFlood flood-opacity="0" result="BackgroundImageFix"/>
<feColorMatrix in="SourceAlpha" type="matrix" values="0 0 0 0 0 0 0 0 0 0 0 0 0 0 0 0 0 0 127 0" result="hardAlpha"/>
<feOffset/>
<feGaussianBlur stdDeviation="5"/>
<feComposite in2="hardAlpha" operator="out"/>
<feColorMatrix type="matrix" values="0 0 0 0 0 0 0 0 0 0 0 0 0 0 0 0 0 0 0.2 0"/>
<feBlend mode="normal" in2="BackgroundImageFix" result="effect1_dropShadow_7_168"/>
<feBlend mode="normal" in="SourceGraphic" in2="effect1_dropShadow_7_168" result="shape"/>
</filter>
<clipPath id="clip0_7_168">
<rect width="291.719" height="56.0431" fill="white"/>
</clipPath>
</defs>
</svg>
