<svg width="293" height="57" viewBox="0 0 293 57" fill="none" xmlns="http://www.w3.org/2000/svg">
<g clip-path="url(#clip0_7_168)">
<path d="M57.6905 0.462891H0.598633V56.506H57.6905V0.462891Z" fill="#00AEEF"/>
<path d="M51.8467 24.6004C52.078 21.8955 50.8699 19.2415 48.6172 17.5035C47.0582 16.3017 45.2201 15.7224 43.5973 15.8516C44.2831 14.5794 44.5104 12.9784 44.2154 11.3304C43.7409 8.70773 42.0942 6.52738 39.6939 5.34914C39.6939 5.34914 39.6939 5.34914 39.69 5.34914C37.21 4.16697 34.407 4.30789 31.9908 5.72884C30.5873 6.55479 29.5148 7.70955 28.9087 8.95434C28.3027 7.70172 27.2301 6.55087 25.8307 5.72884C23.4145 4.30398 20.6115 4.16697 18.1315 5.34914C18.1315 5.34914 18.1315 5.34914 18.1275 5.34914C15.7631 6.51564 14.0726 8.7547 13.6061 11.3422C13.311 12.9862 13.5423 14.5872 14.2161 15.8477C12.7967 15.926 11.2896 16.4896 9.98178 17.5035C7.74101 19.2337 6.5369 21.8681 6.7522 24.5612V24.71H7.23465L6.75619 24.7687C7.07516 27.27 8.66204 29.5326 11.0105 30.8165C12.1548 31.4428 13.3669 31.7638 14.4952 31.7912C13.7337 32.7698 13.2074 34.0224 13.0319 35.416C12.6811 38.2305 13.7975 40.9901 16.0263 42.8025C16.0303 42.8025 16.0343 42.8104 16.0422 42.8143C17.4656 43.8868 19.2359 44.4505 21.0461 44.4505C21.8555 44.4505 22.6689 44.337 23.4703 44.11C25.3442 43.5737 26.8354 42.4776 27.581 41.1624V51.6492H25.9064V52.1228H25.424V53.8021H25.9064V54.2758H31.915V53.8021H32.3975V52.1228H31.915V51.6492H30.2484V40.583C31.5522 42.5363 33.5577 43.8673 35.7865 44.2352C36.1972 44.3018 36.6119 44.337 37.0265 44.337C38.8168 44.337 40.5831 43.7029 42.1022 42.4972L41.7991 42.1292L42.1062 42.4933C44.2911 40.7318 45.3876 37.9995 45.0367 35.1889C44.8772 33.8933 44.4067 32.7228 43.7289 31.7834C43.7648 31.7834 43.8007 31.7951 43.8366 31.7951C45.0686 31.7951 46.3923 31.435 47.6323 30.7304C49.8771 29.4582 51.3643 27.3013 51.6554 24.9409L51.6952 24.9018L51.6673 24.8705C51.6713 24.8313 51.6833 24.7883 51.6873 24.7491L51.5357 24.7335L51.3643 24.5573L51.8467 24.5965V24.6004ZM22.9878 35.6156C22.7725 35.6822 22.633 35.8818 22.6489 36.1049C22.6649 36.3241 22.8363 36.5042 23.0596 36.5394C24.1959 36.7077 24.9894 37.0796 25.412 37.6472C25.8027 38.1757 25.8067 38.7707 25.7549 39.1112C25.3642 40.3208 24.3554 41.2094 22.92 41.6125C21.0142 42.1488 18.7973 41.6752 17.3062 40.4421C15.9545 39.0368 15.3365 36.9309 15.7273 35.0754C16.0103 33.7367 16.7878 32.7385 17.8803 32.2805C18.0916 32.21 18.8292 32.0182 19.5429 32.4175C20.1609 32.762 20.5836 33.4666 20.8069 34.5C20.8547 34.7192 21.0501 34.8719 21.2734 34.8758C21.4966 34.8758 21.692 34.7231 21.7438 34.5078C22.2343 32.3901 21.4249 30.75 19.4034 29.8575C19.3795 29.8496 19.1442 29.787 18.8093 29.74C18.9847 29.4739 19.0964 29.2664 19.1203 29.2116C19.6466 27.1369 18.8851 25.579 16.8556 24.5847C16.6563 24.4868 16.413 24.5377 16.2695 24.7061C16.126 24.8744 16.118 25.1171 16.2536 25.2932C17.4457 26.8512 17.4218 28.0725 16.2695 28.9806C15.2009 29.5013 13.933 29.4308 12.705 28.7771C10.9427 27.8376 9.64687 25.9235 9.41162 23.9701C9.49535 21.9659 10.6038 20.0126 12.2385 18.9988C13.3629 18.302 14.5869 18.1689 15.6555 18.6191C16.0502 18.8109 16.5566 19.171 16.736 19.7856C16.9354 20.4589 16.7121 21.3201 16.0741 22.3456C15.9545 22.5375 15.9904 22.788 16.1579 22.9406C16.3293 23.0933 16.5845 23.1051 16.7679 22.9759C18.6578 21.6254 19.2678 19.9187 18.5103 18.1259C20.2447 17.7775 21.2813 16.611 21.5883 14.6303C21.6242 14.4111 21.4927 14.1958 21.2813 14.1175C21.07 14.0353 20.8308 14.1175 20.7032 14.3054C20.0812 15.2527 19.4193 15.8046 18.7375 15.9455C18.2112 16.0551 17.6451 15.9142 17.1347 15.5932C16.2735 14.7516 15.9186 13.5303 16.1339 12.1564C16.437 10.2148 17.8125 8.35151 19.5549 7.44728C21.4966 6.88751 23.8451 7.32593 25.404 8.52766C26.4606 9.34578 27.0148 10.4066 26.967 11.4674C26.8952 11.9176 26.6959 12.54 26.1337 12.9275C25.5476 13.3307 24.6704 13.4207 23.5261 13.1976C23.3028 13.1545 23.0795 13.2681 22.9878 13.4716C22.8961 13.6752 22.9639 13.9139 23.1473 14.047C25.5157 15.7302 27.2979 14.9591 28.4382 13.9531C28.4582 13.9257 28.6775 13.6399 28.9127 13.225C29.1559 13.6556 29.3912 13.9648 29.439 14.0196C30.99 15.3701 32.8002 15.3819 34.6701 14.047C34.8536 13.9179 34.9213 13.6791 34.8296 13.4716C34.7379 13.2681 34.5186 13.1545 34.2914 13.1976C33.1471 13.4246 32.2659 13.3307 31.6798 12.9275C31.1176 12.54 30.9222 11.9215 30.8584 11.5222C30.8066 10.4105 31.3608 9.34578 32.4214 8.52766C33.9764 7.32593 36.3248 6.89534 38.1748 7.41596C40.0049 8.35543 41.3845 10.2148 41.6875 12.1564C41.9028 13.5303 41.544 14.7555 40.7545 15.5384C40.1724 15.9181 39.6062 16.0591 39.0799 15.9494C38.3941 15.8085 37.7283 15.2566 37.0983 14.3093C36.9747 14.1214 36.7315 14.047 36.5202 14.1253C36.3089 14.2036 36.1813 14.4189 36.2172 14.642C36.572 16.838 37.812 18.0437 39.989 18.2277C39.993 18.2277 40.0209 18.2237 40.0368 18.2237C39.3032 20.0283 39.8694 21.7154 41.6676 22.9876C41.851 23.1168 42.1022 23.1051 42.2696 22.9563C42.4371 22.8076 42.4809 22.5649 42.3693 22.3731C41.7912 21.3553 41.6038 20.498 41.8151 19.8208C42.0105 19.1906 42.5248 18.8266 42.8956 18.6426C43.9921 18.1846 45.2201 18.3138 46.3485 19.0145C47.9832 20.0283 49.0916 21.9777 49.1754 23.9075C48.9361 25.9352 47.6363 27.8494 45.874 28.7888C44.642 29.4425 43.3741 29.5169 42.3573 29.0237C41.9586 28.7653 41.4642 28.3191 41.3645 27.6693C41.2609 26.9999 41.5838 26.2092 42.3215 25.3206C42.465 25.1484 42.465 24.8979 42.3215 24.7256C42.1819 24.5495 41.9307 24.4986 41.7274 24.5965C39.6939 25.5946 38.9324 27.1487 39.5026 29.3212C39.5185 29.3564 39.5743 29.4543 39.6421 29.5717C39.04 29.5952 38.5696 29.7126 38.4978 29.7361C36.6318 30.5699 35.8623 32.1122 36.2092 34.3317C36.2451 34.5548 36.4325 34.7231 36.6637 34.7309C36.895 34.7544 37.0983 34.59 37.1541 34.3747C37.4332 33.2904 37.8718 32.5741 38.4619 32.2374C38.9364 31.9713 39.5225 31.9399 40.2003 32.1239C41.3327 32.5976 42.1141 33.5997 42.3972 34.9423C42.788 36.7939 42.17 38.8959 40.8662 40.2542C39.666 41.1976 38.131 41.5891 36.5401 41.3581C34.8695 41.1154 33.3065 40.2073 32.4573 38.9899C31.4286 37.5572 30.7348 35.3573 30.2763 33.7289C32.0028 33.2121 35.4875 30.3663 37.9197 23.3517L37.4611 23.199L37.0505 22.9485C33.5856 28.46 31.3608 29.6696 30.6671 29.5443C30.5993 29.5326 30.4398 29.5013 30.38 29.1959C30.2285 28.0216 30.2285 25.2619 30.2285 23.0463V17.1355H29.746V16.6619H28.0475V17.1355H27.5651V36.8917C26.6002 35.5138 24.9296 35.0363 22.9719 35.6195L22.9878 35.6156Z" fill="white"/>
<g filter="url(#filter0_d_7_168)">
<path d="M288.158 13.4677C285.853 13.4677 283.903 11.5574 283.903 9.29487C283.903 7.03233 285.813 5.11816 288.158 5.11816C290.502 5.11816 292.32 6.99318 292.32 9.29487C292.32 11.5966 290.414 13.4677 288.158 13.4677ZM288.158 5.61138C286.088 5.61138 284.406 7.26328 284.406 9.29487C284.406 11.3265 286.124 12.9745 288.158 12.9745C290.191 12.9745 291.818 11.2873 291.818 9.29487C291.818 7.30242 290.175 5.61138 288.158 5.61138Z" fill="white"/>
</g>
<g filter="url(#filter1_d_7_168)">
<path fill-rule="evenodd" clip-rule="evenodd" d="M286.285 11.6446V6.92773H288.151V7.4601H286.907V9.02979H288.151V9.63653C288.151 9.63653 288.063 9.55041 287.976 9.55041H286.907V11.6407H286.285V11.6446ZM288.151 6.92773V7.4601H288.418C288.765 7.4601 289.04 7.5423 289.224 7.71845C289.395 7.80066 289.395 7.97681 289.395 8.23516C289.395 8.41522 289.395 8.49743 289.307 8.67358C289.22 8.76361 289.136 8.85364 288.949 8.93976C288.765 8.93976 288.59 9.02588 288.239 9.02588H288.151V9.63261C288.21 9.63261 288.268 9.66132 288.327 9.71873C288.418 9.71873 288.51 9.80876 288.594 9.98883C288.685 10.1611 288.869 10.3294 289.04 10.5956L289.662 11.6407H290.468L289.662 10.3294C289.483 10.071 289.307 9.8988 289.136 9.71873C289.04 9.63261 288.953 9.55041 288.765 9.46038C289.22 9.46038 289.575 9.28814 289.746 9.02979C290.013 8.85364 290.105 8.58746 290.105 8.23907C290.105 7.98072 290.013 7.72237 289.925 7.5423C289.742 7.28395 289.571 7.19392 289.391 7.11171C289.132 7.02168 288.865 6.93165 288.414 6.93165H288.147L288.151 6.92773Z" fill="white"/>
</g>
<g filter="url(#filter2_d_7_168)">
<path fill-rule="evenodd" clip-rule="evenodd" d="M172.062 22.8688V29.5273H168.135V33.6531H172.238V44.2104L176.245 41.0006V21.9607L169.969 16.6214H175.348L177.465 13.2158H168.135V20.0778L172.062 22.8728V22.8688ZM168.135 29.5273H164.219V22.8688L167.987 19.9643L168.139 20.0739V13.2119H147.709V16.6331H166.691L159.965 21.9568V44.1008L164.1 40.2725V33.6492H168.139V29.5234L168.135 29.5273ZM147.705 30.776V26.6189L150.631 24.5716L147.705 22.3717V17.7762L156.285 24.6695L147.705 30.776ZM147.705 13.2119V16.6331H146.277L147.705 17.7762V22.3717L144.778 20.1757V28.6701L147.705 26.6189V30.776L144.782 32.8546V40.3664L141.014 44.1439V19.7373L137.737 21.7806L136.409 19.158L140.564 16.594H125.297V37.0352L130.847 39.7362L136.597 35.8765V39.8575L130.767 44.183L121.286 39.2234V16.641H109.081L115.217 21.9646V40.7931L111.067 44.2143V33.5592H107.052V29.5273H110.947V23.1037L107.052 20.3949V13.2119H147.701H147.705ZM107.056 13.2119V20.3949L106.9 20.2853L103.16 23.1037V29.5273H107.056V33.5592H103.073V40.2803L98.7107 44.183V21.9646L104.376 16.641H94.0378L85.1824 25.0766V20.3519L89.0659 16.641H85.1824V13.2197H107.06L107.056 13.2119ZM85.1784 30.2123H88.4399V44.1752L92.6025 40.7422V29.5351L90.4853 26.5758H85.1824V30.2123H85.1784ZM85.1784 13.2119V16.6331H81.2989V24.0588L85.1784 20.344V25.0688L83.5995 26.5758H85.1784V30.2123H81.5541V40.3625L77.3955 44.1752V16.6371H69.4531L72.3797 13.2158H85.1784V13.2119Z" fill="white"/>
</g>
<g filter="url(#filter3_d_7_168)">
<path fill-rule="evenodd" clip-rule="evenodd" d="M184.128 29.5342L182.183 32.7401H188.502L190.249 29.5342H184.128Z" fill="white"/>
</g>
<g filter="url(#filter4_d_7_168)">
<path fill-rule="evenodd" clip-rule="evenodd" d="M270.837 36.6017L266.778 39.7411V44.0392L274.88 37.7526V16.6185H279.529L282.914 13.2129H266.778V16.7085H270.837V36.6056V36.6017ZM266.778 39.7411L266.698 39.8076L262.707 36.7035V16.7085H266.778V13.209H243.74V16.6302H258.624L254.478 19.1394L255.893 20.9596L258.553 19.3664V37.7917L266.619 44.1527L266.774 44.0431V39.745L266.778 39.7411ZM243.74 33.0905V26.616L246.543 24.5687L243.74 22.3688V17.9142L252.385 24.5961L244.626 30.3229H251.882V40.4379L247.823 44.1722V33.0865H243.736L243.74 33.0905ZM243.74 13.209V16.6302H242.082L243.74 17.9142V22.3688L240.941 20.1728V28.6671L243.74 26.616V33.0905H240.65V40.3635L236.759 44.1527L236.771 19.3977L234.135 20.9635L232.732 19.155L237.082 16.6185H223.833L230.005 21.9578V40.935L225.922 44.2075V33.5524H221.959V29.5361H225.826V23.1165L221.959 20.4077V13.209H243.744H243.74ZM221.955 13.209V20.4077L221.799 20.302L218.083 23.1165V29.5361H221.955V33.5524H217.928V40.2735L213.645 44.1488V21.9539L220.244 16.6302H207.027L211.445 20.8422L209.192 22.8268L205.528 19.2568L202.067 21.5546V40.3987L200.157 42.0624V19.7383L204.67 16.7829H200.157V13.2051H221.959L221.955 13.209ZM200.153 13.209V16.7868L195.648 16.7946L199.882 19.9183L200.157 19.7422V42.0663L197.789 44.1135V21.5311L194.75 19.3742L191.086 23.0342L188.642 20.9361L192.845 16.6185H185.054L187.562 13.2129H200.157L200.153 13.209Z" fill="white"/>
</g>
</g>
<defs>
<filter id="filter0_d_7_168" x="273.903" y="-4.88184" width="28.417" height="28.3496" filterUnits="userSpaceOnUse" color-interpolation-filters="sRGB">
<feFlood flood-opacity="0" result="BackgroundImageFix"/>
<feColorMatrix in="SourceAlpha" type="matrix" values="0 0 0 0 0 0 0 0 0 0 0 0 0 0 0 0 0 0 127 0" result="hardAlpha"/>
<feOffset/>
<feGaussianBlur stdDeviation="5"/>
<feComposite in2="hardAlpha" operator="out"/>
<feColorMatrix type="matrix" values="0 0 0 0 0 0 0 0 0 0 0 0 0 0 0 0 0 0 0.2 0"/>
<feBlend mode="normal" in2="BackgroundImageFix" result="effect1_dropShadow_7_168"/>
<feBlend mode="normal" in="SourceGraphic" in2="effect1_dropShadow_7_168" result="shape"/>
</filter>
<filter id="filter1_d_7_168" x="276.285" y="-3.07227" width="24.1826" height="24.7168" filterUnits="userSpaceOnUse" color-interpolation-filters="sRGB">
<feFlood flood-opacity="0" result="BackgroundImageFix"/>
<feColorMatrix in="SourceAlpha" type="matrix" values="0 0 0 0 0 0 0 0 0 0 0 0 0 0 0 0 0 0 127 0" result="hardAlpha"/>
<feOffset/>
<feGaussianBlur stdDeviation="5"/>
<feComposite in2="hardAlpha" operator="out"/>
<feColorMatrix type="matrix" values="0 0 0 0 0 0 0 0 0 0 0 0 0 0 0 0 0 0 0.2 0"/>
<feBlend mode="normal" in2="BackgroundImageFix" result="effect1_dropShadow_7_168"/>
<feBlend mode="normal" in="SourceGraphic" in2="effect1_dropShadow_7_168" result="shape"/>
</filter>
<filter id="filter2_d_7_168" x="59.4531" y="3.21191" width="128.012" height="51.002" filterUnits="userSpaceOnUse" color-interpolation-filters="sRGB">
<feFlood flood-opacity="0" result="BackgroundImageFix"/>
<feColorMatrix in="SourceAlpha" type="matrix" values="0 0 0 0 0 0 0 0 0 0 0 0 0 0 0 0 0 0 127 0" result="hardAlpha"/>
<feOffset/>
<feGaussianBlur stdDeviation="5"/>
<feComposite in2="hardAlpha" operator="out"/>
<feColorMatrix type="matrix" values="0 0 0 0 0 0 0 0 0 0 0 0 0 0 0 0 0 0 0.2 0"/>
<feBlend mode="normal" in2="BackgroundImageFix" result="effect1_dropShadow_7_168"/>
<feBlend mode="normal" in="SourceGraphic" in2="effect1_dropShadow_7_168" result="shape"/>
</filter>
<filter id="filter3_d_7_168" x="172.183" y="19.5342" width="28.0659" height="23.2061" filterUnits="userSpaceOnUse" color-interpolation-filters="sRGB">
<feFlood flood-opacity="0" result="BackgroundImageFix"/>
<feColorMatrix in="SourceAlpha" type="matrix" values="0 0 0 0 0 0 0 0 0 0 0 0 0 0 0 0 0 0 127 0" result="hardAlpha"/>
<feOffset/>
<feGaussianBlur stdDeviation="5"/>
<feComposite in2="hardAlpha" operator="out"/>
<feColorMatrix type="matrix" values="0 0 0 0 0 0 0 0 0 0 0 0 0 0 0 0 0 0 0.2 0"/>
<feBlend mode="normal" in2="BackgroundImageFix" result="effect1_dropShadow_7_168"/>
<feBlend mode="normal" in="SourceGraphic" in2="effect1_dropShadow_7_168" result="shape"/>
</filter>
<filter id="filter4_d_7_168" x="175.054" y="3.20508" width="117.86" height="51.002" filterUnits="userSpaceOnUse" color-interpolation-filters="sRGB">
<feFlood flood-opacity="0" result="BackgroundImageFix"/>
<feColorMatrix in="SourceAlpha" type="matrix" values="0 0 0 0 0 0 0 0 0 0 0 0 0 0 0 0 0 0 127 0" result="hardAlpha"/>
<feOffset/>
<feGaussianBlur stdDeviation="5"/>
<feComposite in2="hardAlpha" operator="out"/>
<feColorMatrix type="matrix" values="0 0 0 0 0 0 0 0 0 0 0 0 0 0 0 0 0 0 0.2 0"/>
<feBlend mode="normal" in2="BackgroundImageFix" result="effect1_dropShadow_7_168"/>
<feBlend mode="normal" in="SourceGraphic" in2="effect1_dropShadow_7_168" result="shape"/>
</filter>
<clipPath id="clip0_7_168">
<rect width="291.719" height="56.0431" fill="white" transform="translate(0.598633 0.462891)"/>
</clipPath>
</defs>
</svg>
